<svg width="1000" height="1000" viewBox="0 0 1000 1000" fill="none" xmlns="http://www.w3.org/2000/svg">
<rect width="1000" height="1000" fill="#292929"/>
<path fill-rule="evenodd" clip-rule="evenodd" d="M200 230C200 213.431 213.431 200 230 200H390C395.523 200 400 204.477 400 210V400H538.668C544.827 400 548.676 406.667 545.597 412L439.364 596C437.935 598.475 435.294 600 432.436 600H400V790C400 795.523 395.523 800 390 800H300C244.772 800 200 755.228 200 700V592V230ZM600 210C600 204.477 604.477 200 610 200H700C755.228 200 800 244.772 800 300V408V592V790C800 795.523 795.523 800 790 800H750C667.157 800 600 732.843 600 650V600H462.458C456.3 600 452.451 593.333 455.53 588L561.762 404C563.191 401.525 565.832 400 568.691 400H600V210Z" fill="url(#paint0_linear_16_22)"/>
<defs>
<linearGradient id="paint0_linear_16_22" x1="309.5" y1="227.5" x2="677.5" y2="800" gradientUnits="userSpaceOnUse">
<stop stop-color="#2D72F7"/>
<stop offset="1" stop-color="#63F383"/>
</linearGradient>
</defs>
</svg>
